<svg xmlns="http://www.w3.org/2000/svg" width="16" height="16" fill="none"><path fill="#1C1B1F" d="m8 10.333-4.833 4.834c-.306.305-.695.458-1.167.458-.472 0-.861-.153-1.167-.458C.528 14.86.375 14.472.375 14c0-.472.153-.861.458-1.167L5.667 8 .833 3.208C.528 2.903.375 2.514.375 2.042S.528 1.18.833.875C1.14.57 1.528.417 2 .417c.472 0 .861.153 1.167.458L8 5.708 12.792.875c.305-.305.694-.458 1.166-.458.473 0 .861.153 1.167.458.333.333.5.73.5 1.188 0 .458-.167.84-.5 1.145L10.292 8l4.833 4.833c.306.306.458.695.458 1.167 0 .472-.152.861-.458 1.167-.333.333-.73.5-1.188.5a1.49 1.49 0 0 1-1.145-.5L8 10.333Z"/></svg>