<svg xmlns="http://www.w3.org/2000/svg" width="16" height="16" fill="none"><path fill="#2250C4" fill-rule="evenodd" d="M10.708 4.889c1.63 0 2.95 1.393 2.95 3.111 0 1.718-1.32 3.111-2.95 3.111C9.08 11.111 7.76 9.718 7.76 8c0-1.718 1.32-3.111 2.95-3.111ZM7.218 12c-.558 0-.558-.89 0-.89h.12c.558 0 .558-.888 0-.888H5.762c-.557 0-.558-.889 0-.889h.888c.557 0 .557-.889 0-.889H4.404c-.557 0-.557-.889 0-.889h1.071c.558 0 .556-.888 0-.888h-.333c-.557 0-.558-.89 0-.89h1.997c.557 0 .557-.888 0-.888h-.783c-.557 0-.558-.889 0-.889h4.352C12.802 4 14.5 5.79 14.5 8s-1.697 4-3.792 4h-3.49Z" clip-rule="evenodd"/><path fill="#2250C4" d="M9.498 7.946c0-.058.004-.115.01-.171a.924.924 0 0 1 .036-.165.28.28 0 0 0-.005-.177.21.21 0 0 0-.108-.122.177.177 0 0 0-.162-.008.186.186 0 0 0-.105.128 1.466 1.466 0 0 0-.06.255 1.925 1.925 0 0 0-.018.26c0 .485.16.897.479 1.237.318.34.707.51 1.167.51h.036l-.185.195a.211.211 0 0 0-.057.152.21.21 0 0 0 .057.152c.037.04.085.06.143.06.059 0 .107-.02.144-.06l.535-.564a.214.214 0 0 0 .062-.152.214.214 0 0 0-.062-.152l-.535-.564a.19.19 0 0 0-.144-.06.189.189 0 0 0-.143.06.211.211 0 0 0-.057.152.21.21 0 0 0 .057.152l.185.195h-.036c-.343 0-.634-.128-.874-.383a1.307 1.307 0 0 1-.36-.93Zm2.469.021c0 .058-.004.115-.01.171a.916.916 0 0 1-.036.166.28.28 0 0 0 .005.176.21.21 0 0 0 .108.122.177.177 0 0 0 .162.008.186.186 0 0 0 .105-.128 1.46 1.46 0 0 0 .06-.254c.011-.087.018-.174.018-.261 0-.485-.16-.897-.479-1.237a1.539 1.539 0 0 0-1.167-.51h-.036l.186-.195a.211.211 0 0 0 .056-.152.21.21 0 0 0-.056-.152.19.19 0 0 0-.144-.06.189.189 0 0 0-.144.06l-.535.565a.214.214 0 0 0-.062.151c0 .058.02.109.062.152l.535.564a.19.19 0 0 0 .144.06c.058 0 .106-.02.143-.06a.211.211 0 0 0 .057-.152.21.21 0 0 0-.056-.151l-.185-.196h.035c.343 0 .634.128.874.383s.36.565.36.93Z"/><path fill="#2250C4" fill-rule="evenodd" d="M3.745 4.889c-.557 0-.558-.89 0-.89h.785c.557.001.557.89 0 .89h-.785Z" clip-rule="evenodd"/><path fill="#1494E2" fill-rule="evenodd" d="M2.661 6.667a.433.433 0 0 0 .422-.445.433.433 0 0 0-.422-.444.433.433 0 0 0-.42.444c0 .246.187.445.42.445Z" clip-rule="evenodd"/><path fill="#2250C4" fill-rule="evenodd" d="M1.918 8.444c-.557 0-.557-.889 0-.889h.785c.557 0 .557.89 0 .89h-.785ZM5.01 12a.433.433 0 0 0 .421-.445.433.433 0 0 0-.421-.444.433.433 0 0 0-.421.444c0 .246.188.445.42.445Z" clip-rule="evenodd"/><path fill="#1494E2" fill-rule="evenodd" d="M4.283 10.222a.433.433 0 0 0 .421-.444.433.433 0 0 0-.42-.445.433.433 0 0 0-.422.445c0 .245.189.444.421.444Z" clip-rule="evenodd"/></svg>