<svg xmlns="http://www.w3.org/2000/svg" width="100" height="60" fill="none"><path fill="#2250C4" fill-rule="evenodd" d="M70.833 6.667C83.363 6.667 93.52 17.113 93.52 30c0 12.887-10.157 23.333-22.686 23.333-12.53 0-22.685-10.446-22.685-23.333 0-12.888 10.156-23.334 22.685-23.334ZM43.98 60c-4.285 0-4.288-6.67 0-6.67h.93c4.287 0 4.287-6.666 0-6.666H32.783c-4.288 0-4.29-6.666 0-6.666h6.83c4.286 0 4.286-6.666 0-6.666H22.338c-4.28 0-4.286-6.667 0-6.667h8.241c4.288 0 4.278-6.666 0-6.666h-2.565c-4.28 0-4.288-6.667 0-6.667h15.363c4.288 0 4.283-6.666 0-6.666h-6.023c-4.285 0-4.288-6.667 0-6.667h33.48C86.941 0 100 13.432 100 30c0 16.57-13.056 30.001-29.167 30.001H43.98Z" clip-rule="evenodd"/><path fill="#2250C4" d="M61.526 29.594c0-.435.025-.862.078-1.282.053-.42.144-.833.276-1.24a2.053 2.053 0 0 0-.04-1.323 1.594 1.594 0 0 0-.831-.915c-.423-.216-.839-.237-1.246-.06-.408.178-.68.496-.81.957-.211.622-.363 1.26-.457 1.912-.09.651-.139 1.302-.139 1.954 0 3.634 1.226 6.726 3.678 9.276 2.451 2.55 5.445 3.825 8.978 3.825h.276l-1.423 1.464c-.292.3-.436.677-.436 1.138 0 .461.144.842.436 1.139.291.3.658.448 1.106.448.449 0 .819-.149 1.107-.448l4.113-4.231c.317-.326.474-.706.474-1.139 0-.432-.157-.812-.474-1.138l-4.113-4.23c-.291-.3-.658-.449-1.106-.449-.449 0-.819.149-1.107.448-.292.3-.436.678-.436 1.139 0 .46.144.841.436 1.138l1.423 1.464h-.276c-2.637 0-4.878-.956-6.724-2.868-1.847-1.912-2.769-4.238-2.769-6.976l.005-.003Zm18.987.162c0 .435-.025.862-.078 1.281-.053.42-.145.834-.276 1.24-.132.461-.12.902.04 1.324.157.42.436.727.83.914.424.216.84.237 1.247.06.408-.177.679-.495.81-.956.21-.623.363-1.26.456-1.912.091-.652.14-1.303.14-1.954 0-3.634-1.226-6.726-3.678-9.277-2.452-2.55-5.445-3.824-8.978-3.824h-.276l1.423-1.464c.291-.3.436-.678.436-1.139 0-.46-.145-.841-.436-1.138-.291-.3-.659-.448-1.107-.448-.448 0-.818.148-1.107.448l-4.113 4.23a1.583 1.583 0 0 0-.473 1.14c0 .431.157.812.473 1.138l4.113 4.23c.292.3.659.448 1.107.448.448 0 .818-.148 1.107-.448.291-.3.436-.677.436-1.138 0-.461-.145-.842-.436-1.139l-1.423-1.464h.276c2.636 0 4.878.956 6.724 2.868 1.846 1.913 2.768 4.239 2.768 6.977l-.005.003Z"/><path fill="#2250C4" fill-rule="evenodd" d="M17.267 6.666c-4.283 0-4.288-6.666 0-6.666h6.038c4.288 0 4.285 6.666 0 6.666h-6.038Z" clip-rule="evenodd"/><path fill="#1494E2" fill-rule="evenodd" d="M8.933 20c1.788 0 3.242-1.49 3.242-3.332 0-1.841-1.452-3.332-3.242-3.332s-3.24 1.493-3.24 3.332c0 1.84 1.45 3.332 3.24 3.332Z" clip-rule="evenodd"/><path fill="#2250C4" fill-rule="evenodd" d="M3.215 33.333c-4.285 0-4.288-6.667 0-6.667h6.038c4.288 0 4.285 6.667 0 6.667H3.215ZM27 60.001c1.79 0 3.241-1.493 3.241-3.335 0-1.841-1.45-3.331-3.241-3.331-1.791 0-3.24 1.49-3.24 3.331 0 1.842 1.451 3.335 3.24 3.335Z" clip-rule="evenodd"/><path fill="#1494E2" fill-rule="evenodd" d="M21.41 46.668c1.79 0 3.24-1.492 3.24-3.334s-1.45-3.332-3.24-3.332c-1.79 0-3.24 1.492-3.24 3.332 0 1.839 1.452 3.334 3.24 3.334Z" clip-rule="evenodd"/></svg>