<svg xmlns="http://www.w3.org/2000/svg" width="20" height="21" fill="none"><path fill="#1E1E1E" d="M19 5.666a.75.75 0 0 1-1.01-.321 8.825 8.825 0 0 0-3.137-3.46.751.751 0 0 1 .8-1.27 10.449 10.449 0 0 1 3.668 4.04.75.75 0 0 1-.321 1.01ZM1.348 5.75a.75.75 0 0 0 .665-.405 8.825 8.825 0 0 1 3.137-3.46.75.75 0 1 0-.8-1.27 10.45 10.45 0 0 0-3.668 4.04.75.75 0 0 0 .666 1.095Zm17.447 9.744A1.5 1.5 0 0 1 17.5 17.75h-3.825a3.75 3.75 0 0 1-7.35 0H2.5a1.5 1.5 0 0 1-1.293-2.256C2.052 14.037 2.5 11.964 2.5 9.5a7.5 7.5 0 1 1 15 0c0 2.463.448 4.536 1.295 5.994ZM12.12 17.75H7.879a2.25 2.25 0 0 0 4.242 0Zm5.379-1.5c-.997-1.713-1.5-3.983-1.5-6.75a6 6 0 1 0-12 0c0 2.768-.504 5.038-1.5 6.75h15Z"/></svg>