<svg xmlns="http://www.w3.org/2000/svg" width="100" height="100" fill="none"><rect width="90" height="90" x="5" y="5" fill="#2250C4" rx="45"/><rect width="90" height="90" x="5" y="5" stroke="#E1E8F0" stroke-width="10" rx="45"/><mask id="a" width="48" height="48" x="26" y="26" maskUnits="userSpaceOnUse" style="mask-type:alpha"><path fill="#D9D9D9" d="M26 26h48v48H26z"/></mask><g mask="url(#a)"><path fill="#fff" d="M38 50.1c0 .533.033 1.058.1 1.575.067.517.183 1.025.35 1.525.167.567.15 1.108-.05 1.625-.2.517-.55.892-1.05 1.125-.533.267-1.058.292-1.575.075-.517-.217-.858-.608-1.025-1.175a12.73 12.73 0 0 1-.575-2.35c-.117-.8-.175-1.6-.175-2.4 0-4.467 1.55-8.267 4.65-11.4C41.75 35.567 45.533 34 50 34h.35l-1.8-1.8c-.367-.367-.55-.833-.55-1.4s.183-1.033.55-1.4c.367-.367.833-.55 1.4-.55s1.033.183 1.4.55l5.2 5.2c.4.4.6.867.6 1.4 0 .533-.2 1-.6 1.4l-5.2 5.2c-.367.367-.833.55-1.4.55s-1.033-.183-1.4-.55c-.367-.367-.55-.833-.55-1.4s.183-1.033.55-1.4l1.8-1.8H50c-3.333 0-6.167 1.175-8.5 3.525-2.333 2.35-3.5 5.208-3.5 8.575Zm24-.2c0-.533-.033-1.058-.1-1.575a8.082 8.082 0 0 0-.35-1.525c-.167-.567-.15-1.108.05-1.625.2-.517.55-.892 1.05-1.125.533-.267 1.058-.292 1.575-.075.517.217.858.608 1.025 1.175.267.767.458 1.55.575 2.35.117.8.175 1.6.175 2.4 0 4.467-1.55 8.267-4.65 11.4C58.25 64.433 54.467 66 50 66h-.35l1.8 1.8c.367.367.55.833.55 1.4s-.183 1.033-.55 1.4c-.367.367-.833.55-1.4.55s-1.033-.183-1.4-.55l-5.2-5.2c-.4-.4-.6-.867-.6-1.4 0-.533.2-1 .6-1.4l5.2-5.2c.367-.367.833-.55 1.4-.55s1.033.183 1.4.55c.367.367.55.833.55 1.4s-.183 1.033-.55 1.4l-1.8 1.8H50c3.333 0 6.167-1.175 8.5-3.525 2.333-2.35 3.5-5.208 3.5-8.575Z"/></g></svg>