<svg xmlns="http://www.w3.org/2000/svg" width="24" height="14" fill="none"><path fill="#00AD22" d="M1.15 13.563a1.086 1.086 0 0 1-.335-.832c.01-.32.121-.588.335-.802l6.154-6.242c.447-.447 1.002-.67 1.663-.67.66 0 1.215.223 1.662.67l3.004 3.034L19.7 2.712h-1.867c-.33 0-.607-.111-.83-.335a1.129 1.129 0 0 1-.336-.831c0-.33.111-.608.335-.831.224-.224.5-.336.831-.336H22.5c.33 0 .608.112.831.336.224.223.336.5.336.83v4.667c0 .331-.112.608-.336.832-.223.223-.5.335-.831.335-.33 0-.608-.112-.831-.335a1.129 1.129 0 0 1-.336-.832V4.346l-6.037 6.037c-.447.448-1.002.671-1.663.671-.66 0-1.215-.223-1.662-.67L8.967 7.378l-6.184 6.184c-.214.213-.486.32-.816.32-.33 0-.603-.107-.817-.32Z"/></svg>