<svg xmlns="http://www.w3.org/2000/svg" width="24" height="14" fill="none"><path fill="#BF0303" d="M1.15.7c-.233.233-.345.51-.335.831.01.321.121.588.335.802l6.154 6.242c.447.447 1.002.67 1.663.67.66 0 1.215-.223 1.662-.67l3.004-3.033L19.7 11.55h-1.867c-.33 0-.607.112-.83.335-.224.224-.336.501-.336.832 0 .33.111.607.335.83.224.224.5.336.831.336H22.5c.33 0 .608-.111.831-.335.224-.224.336-.5.336-.831V8.05c0-.33-.112-.608-.336-.831a1.129 1.129 0 0 0-.831-.336c-.33 0-.608.112-.831.336-.224.223-.336.5-.336.831v1.867l-6.037-6.038c-.447-.447-1.002-.67-1.663-.67-.66 0-1.215.223-1.662.67L8.967 6.883 2.783.7a1.106 1.106 0 0 0-.816-.32c-.33 0-.603.106-.817.32Z"/></svg>